<svg xmlns="http://www.w3.org/2000/svg" width="684" height="64.8" debug="false" viewBox="0 0 2280 216" class="debug"><style>
.diagram {
  display: block;
}

.diagram line, .diagram circle, .diagram rect {
  stroke: black;
}

.diagram line {
  stroke-width: 2;
}

.diagram circle {
  r: 3.5;
}

.diagram rect {
  width: 6px;
  height: 6px;
}

.diagram text, .glyph, .debug text {
  /** font-family: Consolas, Monaco, 'Andale Mono', 'Ubuntu Mono', monospace; **/
  font-family: Iosevka Fixed, monospace;
  font-size: 3em;
  text-anchor: middle;
  alignment-baseline: central;
  white-space: pre;
}

.reserved {
  fill: transparent;
  white-space: pre;
}

.debug[debug="true"] .reserved {
  fill: black;
  opacity: 0.5;
}

.debug[debug="true"] line.grid {
  stroke: black;
  stroke-width: 0.2;
  stroke-linecap: butt;
  fill: black;
  opacity: 1%;
}

polygon {
  stroke-width: 0;
}

.debug[debug="true"] polygon.inner {
  fill: black;
  stroke: black;
  opacity: 5%;
}

polygon {
  stroke: black;
  /** stroke-width: 0.2; **/
  stroke-linecap: butt;
  fill: black;
}

.debug[debug="true"] polygon,
.debug[debug="true"] line.grid
{
  opacity: 10%;
}

.debug[debug="true"] polygon,
.debug[debug="true"] path,
.debug[debug="true"] circle
{
  opacity: 50%;
}

.debug[debug="true"] polygon {
  fill: red;
  stroke: red;
}

/**
circle {
  fill: black;
}
**/

.debug[debug="true"] circle,
.debug[debug="true"] path
{
  opacity: 50%;
  fill: red;
}

.debug[debug="true"] circle {
  stroke: red;
}

.debug[debug="true"] .inner {
  stroke-width: 0.2;
}

line.part {
  stroke-width: 6;
  stroke-linecap: butt;
  stroke: black;
}

.debug[debug="true"] line.part {
  opacity: 50%;
  stroke: red;
}

.debug[debug="true"] line.center {
  stroke-width: 3;
  stroke-linecap: butt;
  opacity: 10%;
  stroke: black;
}

text::selection {
    fill: black;
    background-color: #EEE;
}
  </style><g><g transform="translate(90 0)"><g transform="translate(0 24)"><line x1="15" y1="27" x2="30" y2="27" class="part"/><line x1="0" y1="27" x2="15" y2="27" class="part"/></g><g><text class="reserved" transform="translate(15, 24)">_</text></g></g><g transform="translate(120 0)"><g transform="translate(0 24)"><line x1="15" y1="27" x2="30" y2="27" class="part"/><line x1="0" y1="27" x2="15" y2="27" class="part"/></g><g><text class="reserved" transform="translate(15, 24)">_</text></g></g><g transform="translate(390 0)"><g transform="translate(0 24)"><line x1="15" y1="27" x2="30" y2="27" class="part"/><line x1="0" y1="27" x2="15" y2="27" class="part"/></g><g><text class="reserved" transform="translate(15, 24)">_</text></g></g><g transform="translate(420 0)"><g transform="translate(0 24)"><line x1="15" y1="27" x2="30" y2="27" class="part"/><line x1="0" y1="27" x2="15" y2="27" class="part"/></g><g><text class="reserved" transform="translate(15, 24)">_</text></g></g><g transform="translate(450 0)"><g transform="translate(0 24)"><line x1="15" y1="27" x2="30" y2="27" class="part"/><line x1="0" y1="27" x2="15" y2="27" class="part"/></g><g><text class="reserved" transform="translate(15, 24)">_</text></g></g><g transform="translate(480 0)"><g transform="translate(0 24)"><line x1="15" y1="27" x2="30" y2="27" class="part"/><line x1="0" y1="27" x2="15" y2="27" class="part"/></g><g><text class="reserved" transform="translate(15, 24)">_</text></g></g><g transform="translate(660 0)"><g transform="translate(0 24)"><line x1="15" y1="27" x2="30" y2="27" class="part"/><line x1="0" y1="27" x2="15" y2="27" class="part"/></g><g><text class="reserved" transform="translate(15, 24)">_</text></g></g><g transform="translate(690 0)"><g transform="translate(0 24)"><line x1="15" y1="27" x2="30" y2="27" class="part"/><line x1="0" y1="27" x2="15" y2="27" class="part"/></g><g><text class="reserved" transform="translate(15, 24)">_</text></g></g><g transform="translate(720 0)"><g transform="translate(0 24)"><line x1="15" y1="27" x2="30" y2="27" class="part"/><line x1="0" y1="27" x2="15" y2="27" class="part"/></g><g><text class="reserved" transform="translate(15, 24)">_</text></g></g><g transform="translate(1380 0)"><g><path d="&#xA;        M 30 24&#xA;        A 18 18, 0, 0, 0, 12 42&#xA;        L 12 54&#xA;        L 18 54&#xA;        L 18 42&#xA;        A 12 12, 0, 0, 1, 30 30&#xA;        Z"/></g><g><text class="reserved" transform="translate(15, 24)">.</text></g></g><g transform="translate(1410 0)"><g><line x1="15" y1="27" x2="30" y2="27" class="part"/><line x1="0" y1="27" x2="15" y2="27" class="part"/></g><g><text class="reserved" transform="translate(15, 24)">-</text></g></g><g transform="translate(1440 0)"><g><line x1="15" y1="27" x2="30" y2="27" class="part"/><line x1="0" y1="27" x2="15" y2="27" class="part"/></g><g><text class="reserved" transform="translate(15, 24)">-</text></g></g><g transform="translate(1470 0)"><g><line x1="15" y1="27" x2="30" y2="27" class="part"/><line x1="0" y1="27" x2="15" y2="27" class="part"/></g><g><text class="reserved" transform="translate(15, 24)">-</text></g></g><g transform="translate(1500 0)"><g><path d="&#xA;        M 0 24&#xA;        A 18 18, 0, 0, 1, 18 42&#xA;        L 18 54&#xA;        L 12 54&#xA;        L 12 42&#xA;        A 12 12, 0, 0, 0, 0 30        &#xA;        Z"/></g><g><text class="reserved" transform="translate(15, 24)">.</text></g></g><g transform="translate(1680 0)"><g transform="translate(0 24)"><line x1="15" y1="27" x2="30" y2="27" class="part"/><line x1="0" y1="27" x2="15" y2="27" class="part"/></g><g><text class="reserved" transform="translate(15, 24)">_</text></g></g><g transform="translate(1710 0)"><g transform="translate(0 24)"><line x1="15" y1="27" x2="30" y2="27" class="part"/><line x1="0" y1="27" x2="15" y2="27" class="part"/></g><g><text class="reserved" transform="translate(15, 24)">_</text></g></g><g transform="translate(1980 0)"><g><g><line x1="15" y1="27" x2="30" y2="27" class="part"/><line x1="15" y1="27" x2="0" y2="54" class="part"/></g><g clip-path="polygon(0 27, 15 27, 15 30, 0 30)"><line x1="30" y1="0" x2="15" y2="27" class="part"/></g><g clip-path="polygon(-3 0, 0 0, 0 54, -3 54)"/><g clip-path="polygon(-3 24, 30 24, 30 30, -3 30)"><line x1="30" y1="0" x2="15" y2="27" class="part"/></g></g><g><text class="reserved" transform="translate(15, 24)">+</text></g></g><g transform="translate(2010 0)"><g><line x1="15" y1="27" x2="30" y2="27" class="part"/><line x1="0" y1="27" x2="15" y2="27" class="part"/></g><g><text class="reserved" transform="translate(15, 24)">-</text></g></g><g transform="translate(2040 0)"><g><g><line x1="0" y1="27" x2="15" y2="27" class="part"/><line x1="15" y1="27" x2="0" y2="54" class="part"/></g><g clip-path="polygon(0 27, 15 27, 15 30, 0 30)"><line x1="30" y1="0" x2="15" y2="27" class="part"/></g><g clip-path="polygon(-3 0, 0 0, 0 54, -3 54)"/><g clip-path="polygon(-3 24, 30 24, 30 30, -3 30)"><line x1="30" y1="0" x2="15" y2="27" class="part"/><line x1="0" y1="0" x2="15" y2="27" class="part"/></g></g><g><text class="reserved" transform="translate(15, 24)">+</text></g></g><g transform="translate(2130 0)"><g><g><line x1="15" y1="27" x2="30" y2="27" class="part"/><line x1="15" y1="27" x2="30" y2="54" class="part"/></g><g clip-path="polygon(0 27, 15 27, 15 30, 0 30)"><line x1="0" y1="0" x2="15" y2="27" class="part"/></g><g clip-path="polygon(15 0, 30 0, 30 54, 15 54)"/><g clip-path="polygon(-3 24, 30 24, 30 30, -3 30)"><line x1="30" y1="0" x2="15" y2="27" class="part"/><line x1="0" y1="0" x2="15" y2="27" class="part"/></g></g><g><text class="reserved" transform="translate(15, 24)">+</text></g></g><g transform="translate(2160 0)"><g><line x1="15" y1="27" x2="30" y2="27" class="part"/><line x1="0" y1="27" x2="15" y2="27" class="part"/></g><g><text class="reserved" transform="translate(15, 24)">-</text></g></g><g transform="translate(2190 0)"><g><g><line x1="0" y1="27" x2="15" y2="27" class="part"/><line x1="15" y1="27" x2="30" y2="54" class="part"/></g><g clip-path="polygon(0 27, 15 27, 15 30, 0 30)"><line x1="0" y1="0" x2="15" y2="27" class="part"/></g><g clip-path="polygon(15 0, 30 0, 30 54, 15 54)"/><g clip-path="polygon(-3 24, 30 24, 30 30, -3 30)"><line x1="0" y1="0" x2="15" y2="27" class="part"/></g></g><g><text class="reserved" transform="translate(15, 24)">+</text></g></g><g transform="translate(60 54)"><g><g><line x1="30" y1="0" x2="15" y2="27" class="part"/><line x1="15" y1="27" x2="0" y2="54" class="part"/></g></g><g><text class="reserved" transform="translate(15, 24)">/</text></g></g><g transform="translate(150 54)"><g><g><line x1="15" y1="27" x2="30" y2="54" class="part"/><line x1="0" y1="0" x2="15" y2="27" class="part"/></g></g><g><text class="reserved" transform="translate(15, 24)">\</text></g></g><g transform="translate(270 54)"><g><g><line x1="30" y1="0" x2="15" y2="27" class="part"/><line x1="15" y1="27" x2="0" y2="54" class="part"/></g><g transform="translate(30 -54)" clip-path="polygon(-3 0, 0 0, 0 54, -3 54)"><line x1="15" y1="27" x2="0" y2="54" class="part"/></g></g><g><text class="reserved" transform="translate(15, 24)">/</text></g></g><g transform="translate(300 54)"><g><g><line x1="15" y1="27" x2="30" y2="54" class="part"/><line x1="0" y1="0" x2="15" y2="27" class="part"/></g><g transform="translate(-30 -54)" clip-path="polygon(15 0, 30 0, 30 54, 15 54)"><line x1="15" y1="27" x2="30" y2="54" class="part"/></g></g><g><text class="reserved" transform="translate(15, 24)">\</text></g></g><g transform="translate(390 54)"><g><g><line x1="15" y1="27" x2="30" y2="54" class="part"/><line x1="0" y1="0" x2="15" y2="27" class="part"/></g></g><g><text class="reserved" transform="translate(15, 24)">\</text></g></g><g transform="translate(480 54)"><g><g><line x1="30" y1="0" x2="15" y2="27" class="part"/><line x1="15" y1="27" x2="0" y2="54" class="part"/></g></g><g><text class="reserved" transform="translate(15, 24)">/</text></g></g><g transform="translate(570 54)"><g><g><line x1="15" y1="27" x2="30" y2="54" class="part"/><line x1="15" y1="27" x2="0" y2="54" class="part"/></g><g clip-path="polygon(0 27, 15 27, 15 30, 0 30)"><line x1="30" y1="0" x2="15" y2="27" class="part"/><line x1="0" y1="0" x2="15" y2="27" class="part"/></g><g clip-path="polygon(-3 0, 0 0, 0 54, -3 54)"><line x1="30" y1="0" x2="15" y2="27" class="part"/></g><g clip-path="polygon(15 0, 30 0, 30 54, 15 54)"><line x1="0" y1="0" x2="15" y2="27" class="part"/></g></g><g><text class="reserved" transform="translate(15, 24)">+</text></g></g><g transform="translate(660 54)"><g><g><line x1="15" y1="27" x2="30" y2="54" class="part"/><line x1="0" y1="0" x2="15" y2="27" class="part"/></g></g><g><text class="reserved" transform="translate(15, 24)">\</text></g></g><g transform="translate(720 54)"><g><g><line x1="30" y1="0" x2="15" y2="27" class="part"/><line x1="15" y1="27" x2="0" y2="54" class="part"/></g></g><g><text class="reserved" transform="translate(15, 24)">/</text></g></g><g transform="translate(810 54)"><g><g><line x1="30" y1="0" x2="15" y2="27" class="part"/><line x1="15" y1="27" x2="0" y2="54" class="part"/></g><g transform="translate(30 -54)" clip-path="polygon(-3 0, 0 0, 0 54, -3 54)"><line x1="15" y1="27" x2="0" y2="54" class="part"/></g></g><g><text class="reserved" transform="translate(15, 24)">/</text></g></g><g transform="translate(840 54)"><g><g><line x1="15" y1="27" x2="30" y2="54" class="part"/><line x1="0" y1="0" x2="15" y2="27" class="part"/></g><g transform="translate(-30 -54)" clip-path="polygon(15 0, 30 0, 30 54, 15 54)"><line x1="15" y1="27" x2="30" y2="54" class="part"/></g></g><g><text class="reserved" transform="translate(15, 24)">\</text></g></g><g transform="translate(960 54)"><g><g><line x1="15" y1="27" x2="30" y2="27" class="part"/><line x1="15" y1="27" x2="15" y2="54" class="part"/></g><polygon points="0,0 6,0 6,6 0,6" transform="translate(-3 -3) translate(15 27)"/><g clip-path="polygon(-3 24, 30 24, 30 30, -3 30)"><line x1="30" y1="0" x2="15" y2="27" class="part"/></g></g><g><text class="reserved" transform="translate(15, 24)">+</text></g></g><g transform="translate(990 54)"><g><line x1="15" y1="27" x2="30" y2="27" class="part"/><line x1="0" y1="27" x2="15" y2="27" class="part"/></g><g><text class="reserved" transform="translate(15, 24)">-</text></g></g><g transform="translate(1020 54)"><g><g><line x1="15" y1="27" x2="15" y2="54" class="part"/><line x1="0" y1="27" x2="15" y2="27" class="part"/></g><polygon points="0,0 6,0 6,6 0,6" transform="translate(-3 -3) translate(15 27)"/><g clip-path="polygon(-3 24, 30 24, 30 30, -3 30)"><line x1="0" y1="0" x2="15" y2="27" class="part"/></g></g><g><text class="reserved" transform="translate(15, 24)">+</text></g></g><g transform="translate(1110 54)"><g><g><line x1="15" y1="27" x2="30" y2="27" class="part"/><line x1="15" y1="27" x2="0" y2="54" class="part"/></g><g clip-path="polygon(0 27, 15 27, 15 30, 0 30)"><line x1="30" y1="0" x2="15" y2="27" class="part"/></g><g clip-path="polygon(-3 0, 0 0, 0 54, -3 54)"/><g clip-path="polygon(-3 24, 30 24, 30 30, -3 30)"><line x1="30" y1="0" x2="15" y2="27" class="part"/></g></g><g><text class="reserved" transform="translate(15, 24)">+</text></g></g><g transform="translate(1140 54)"><g><line x1="15" y1="27" x2="30" y2="27" class="part"/><line x1="0" y1="27" x2="15" y2="27" class="part"/></g><g><text class="reserved" transform="translate(15, 24)">-</text></g></g><g transform="translate(1170 54)"><g><g><line x1="0" y1="27" x2="15" y2="27" class="part"/><line x1="15" y1="27" x2="0" y2="54" class="part"/></g><g clip-path="polygon(0 27, 15 27, 15 30, 0 30)"><line x1="30" y1="0" x2="15" y2="27" class="part"/></g><g clip-path="polygon(-3 0, 0 0, 0 54, -3 54)"/><g clip-path="polygon(-3 24, 30 24, 30 30, -3 30)"><line x1="30" y1="0" x2="15" y2="27" class="part"/><line x1="0" y1="0" x2="15" y2="27" class="part"/></g></g><g><text class="reserved" transform="translate(15, 24)">+</text></g></g><g transform="translate(1230 54)"><g><g><line x1="15" y1="27" x2="30" y2="27" class="part"/><line x1="15" y1="27" x2="30" y2="54" class="part"/></g><g clip-path="polygon(0 27, 15 27, 15 30, 0 30)"><line x1="0" y1="0" x2="15" y2="27" class="part"/></g><g clip-path="polygon(15 0, 30 0, 30 54, 15 54)"/><g clip-path="polygon(-3 24, 30 24, 30 30, -3 30)"><line x1="30" y1="0" x2="15" y2="27" class="part"/><line x1="0" y1="0" x2="15" y2="27" class="part"/></g></g><g><text class="reserved" transform="translate(15, 24)">+</text></g></g><g transform="translate(1260 54)"><g><line x1="15" y1="27" x2="30" y2="27" class="part"/><line x1="0" y1="27" x2="15" y2="27" class="part"/></g><g><text class="reserved" transform="translate(15, 24)">-</text></g></g><g transform="translate(1290 54)"><g><g><line x1="0" y1="27" x2="15" y2="27" class="part"/><line x1="15" y1="27" x2="30" y2="54" class="part"/></g><g clip-path="polygon(0 27, 15 27, 15 30, 0 30)"><line x1="0" y1="0" x2="15" y2="27" class="part"/></g><g clip-path="polygon(15 0, 30 0, 30 54, 15 54)"/><g clip-path="polygon(-3 24, 30 24, 30 30, -3 30)"><line x1="0" y1="0" x2="15" y2="27" class="part"/></g></g><g><text class="reserved" transform="translate(15, 24)">+</text></g></g><g transform="translate(1380 54)"><g><g><line x1="15" y1="0" x2="15" y2="27" class="part"/><line x1="15" y1="27" x2="15" y2="54" class="part"/></g></g><g><text class="reserved" transform="translate(15, 24)">|</text></g></g><g transform="translate(1500 54)"><g><g><line x1="15" y1="0" x2="15" y2="27" class="part"/><line x1="15" y1="27" x2="15" y2="54" class="part"/></g></g><g><text class="reserved" transform="translate(15, 24)">|</text></g></g><g transform="translate(1560 54)"><g><g><line x1="15" y1="27" x2="30" y2="27" class="part"/><line x1="15" y1="27" x2="15" y2="54" class="part"/></g><polygon points="0,0 6,0 6,6 0,6" transform="translate(-3 -3) translate(15 27)"/><g clip-path="polygon(-3 24, 30 24, 30 30, -3 30)"><line x1="30" y1="0" x2="15" y2="27" class="part"/></g></g><g><text class="reserved" transform="translate(15, 24)">+</text></g></g><g transform="translate(1590 54)"><g><g><line x1="15" y1="27" x2="15" y2="54" class="part"/><line x1="0" y1="27" x2="15" y2="27" class="part"/></g><polygon points="0,0 6,0 6,6 0,6" transform="translate(-3 -3) translate(15 27)"/><g clip-path="polygon(-3 24, 30 24, 30 30, -3 30)"><line x1="0" y1="0" x2="15" y2="27" class="part"/></g></g><g><text class="reserved" transform="translate(15, 24)">+</text></g></g><g transform="translate(1650 54)"><g><line x1="12" y1="-3" x2="30" y2="-3" class="part"/><g><line x1="15" y1="0" x2="15" y2="27" class="part"/><line x1="15" y1="27" x2="15" y2="54" class="part"/></g></g><g><text class="reserved" transform="translate(15, 24)">|</text></g></g><g transform="translate(1740 54)"><g><line x1="0" y1="-3" x2="18" y2="-3" class="part"/><g><line x1="15" y1="0" x2="15" y2="27" class="part"/><line x1="15" y1="27" x2="15" y2="54" class="part"/></g></g><g><text class="reserved" transform="translate(15, 24)">|</text></g></g><g transform="translate(1830 54)"><g transform="translate(0 24)"><line x1="15" y1="27" x2="30" y2="27" class="part"/><line x1="0" y1="27" x2="15" y2="27" class="part"/></g><g><text class="reserved" transform="translate(15, 24)">_</text></g></g><g transform="translate(1950 54)"><g><g><line x1="30" y1="0" x2="15" y2="27" class="part"/><line x1="15" y1="27" x2="0" y2="54" class="part"/></g></g><g><text class="reserved" transform="translate(15, 24)">/</text></g></g><g transform="translate(2010 54)"><g><g><line x1="30" y1="0" x2="15" y2="27" class="part"/><line x1="15" y1="27" x2="0" y2="54" class="part"/></g></g><g><text class="reserved" transform="translate(15, 24)">/</text></g></g><g transform="translate(2160 54)"><g><g><line x1="15" y1="27" x2="30" y2="54" class="part"/><line x1="0" y1="0" x2="15" y2="27" class="part"/></g></g><g><text class="reserved" transform="translate(15, 24)">\</text></g></g><g transform="translate(2220 54)"><g><g><line x1="15" y1="27" x2="30" y2="54" class="part"/><line x1="0" y1="0" x2="15" y2="27" class="part"/></g></g><g><text class="reserved" transform="translate(15, 24)">\</text></g></g><g transform="translate(60 108)"><g><g><line x1="15" y1="27" x2="30" y2="54" class="part"/><line x1="0" y1="0" x2="15" y2="27" class="part"/></g></g><g><text class="reserved" transform="translate(15, 24)">\</text></g></g><g transform="translate(90 108)"><g transform="translate(0 24)"><line x1="15" y1="27" x2="30" y2="27" class="part"/><line x1="0" y1="27" x2="15" y2="27" class="part"/></g><g><text class="reserved" transform="translate(15, 24)">_</text></g></g><g transform="translate(120 108)"><g transform="translate(0 24)"><line x1="15" y1="27" x2="30" y2="27" class="part"/><line x1="0" y1="27" x2="15" y2="27" class="part"/></g><g><text class="reserved" transform="translate(15, 24)">_</text></g></g><g transform="translate(150 108)"><g><g><line x1="30" y1="0" x2="15" y2="27" class="part"/><line x1="15" y1="27" x2="0" y2="54" class="part"/></g></g><g><text class="reserved" transform="translate(15, 24)">/</text></g></g><g transform="translate(240 108)"><g><g><line x1="30" y1="0" x2="15" y2="27" class="part"/><line x1="15" y1="27" x2="0" y2="54" class="part"/></g><g transform="translate(0 24)"><line x1="15" y1="27" x2="30" y2="27" class="part"/><line x1="0" y1="27" x2="15" y2="27" class="part"/></g></g><g><text class="reserved" transform="translate(15, 24)">/</text></g></g><g transform="translate(270 108)"><g transform="translate(0 24)"><line x1="15" y1="27" x2="30" y2="27" class="part"/><line x1="0" y1="27" x2="15" y2="27" class="part"/></g><g><text class="reserved" transform="translate(15, 24)">_</text></g></g><g transform="translate(300 108)"><g transform="translate(0 24)"><line x1="15" y1="27" x2="30" y2="27" class="part"/><line x1="0" y1="27" x2="15" y2="27" class="part"/></g><g><text class="reserved" transform="translate(15, 24)">_</text></g></g><g transform="translate(330 108)"><g><g><line x1="15" y1="27" x2="30" y2="54" class="part"/><line x1="0" y1="0" x2="15" y2="27" class="part"/></g><g transform="translate(0 24)"><line x1="15" y1="27" x2="30" y2="27" class="part"/><line x1="0" y1="27" x2="15" y2="27" class="part"/></g></g><g><text class="reserved" transform="translate(15, 24)">\</text></g></g><g transform="translate(420 108)"><g><g><line x1="15" y1="27" x2="30" y2="54" class="part"/><line x1="0" y1="0" x2="15" y2="27" class="part"/></g><g transform="translate(30 54)" clip-path="polygon(-3 0, 0 0, 0 6, -3 6)"><line x1="0" y1="0" x2="15" y2="27" class="part"/></g></g><g><text class="reserved" transform="translate(15, 24)">\</text></g></g><g transform="translate(450 108)"><g><g><line x1="30" y1="0" x2="15" y2="27" class="part"/><line x1="15" y1="27" x2="0" y2="54" class="part"/></g><g transform="translate(-30 54)" clip-path="polygon(15 -6, 33 -6, 33 6, 15 6)"><line x1="30" y1="0" x2="15" y2="27" class="part"/></g></g><g><text class="reserved" transform="translate(15, 24)">/</text></g></g><g transform="translate(540 108)"><g><g><line x1="30" y1="0" x2="15" y2="27" class="part"/><line x1="15" y1="27" x2="0" y2="54" class="part"/></g><g transform="translate(0 24)"><line x1="15" y1="27" x2="30" y2="27" class="part"/><line x1="0" y1="27" x2="15" y2="27" class="part"/></g></g><g><text class="reserved" transform="translate(15, 24)">/</text></g></g><g transform="translate(570 108)"><g transform="translate(0 24)"><line x1="15" y1="27" x2="30" y2="27" class="part"/><line x1="0" y1="27" x2="15" y2="27" class="part"/></g><g><text class="reserved" transform="translate(15, 24)">_</text></g></g><g transform="translate(600 108)"><g><g><line x1="15" y1="27" x2="30" y2="54" class="part"/><line x1="0" y1="0" x2="15" y2="27" class="part"/></g><g transform="translate(0 24)"><line x1="15" y1="27" x2="30" y2="27" class="part"/><line x1="0" y1="27" x2="15" y2="27" class="part"/></g></g><g><text class="reserved" transform="translate(15, 24)">\</text></g></g><g transform="translate(690 108)"><g><g><line x1="30" y1="0" x2="15" y2="27" class="part"/><line x1="0" y1="0" x2="15" y2="27" class="part"/></g><g clip-path="polygon(0 -3, 30 -3, 30 0, 0 0)"><line x1="15" y1="27" x2="30" y2="54" class="part"/><line x1="15" y1="27" x2="0" y2="54" class="part"/></g><g clip-path="polygon(-3 0, 0 0, 0 54, -3 54)"><line x1="15" y1="27" x2="30" y2="54" class="part"/></g><g clip-path="polygon(15 0, 30 0, 30 54, 15 54)"><line x1="15" y1="27" x2="0" y2="54" class="part"/></g></g><g><text class="reserved" transform="translate(15, 24)">+</text></g></g><g transform="translate(780 108)"><g><g><line x1="30" y1="0" x2="15" y2="27" class="part"/><line x1="15" y1="27" x2="0" y2="54" class="part"/></g></g><g><text class="reserved" transform="translate(15, 24)">/</text></g></g><g transform="translate(870 108)"><g><g><line x1="15" y1="27" x2="30" y2="54" class="part"/><line x1="0" y1="0" x2="15" y2="27" class="part"/></g></g><g><text class="reserved" transform="translate(15, 24)">\</text></g></g><g transform="translate(960 108)"><g><g><line x1="15" y1="0" x2="15" y2="27" class="part"/><line x1="15" y1="27" x2="30" y2="27" class="part"/></g><polygon points="0,0 6,0 6,6 0,6" transform="translate(-3 -3) translate(15 27)"/><g clip-path="polygon(-3 24, 30 24, 30 30, -3 30)"><line x1="30" y1="0" x2="15" y2="27" class="part"/></g></g><g><text class="reserved" transform="translate(15, 24)">+</text></g></g><g transform="translate(990 108)"><g><line x1="15" y1="27" x2="30" y2="27" class="part"/><line x1="0" y1="27" x2="15" y2="27" class="part"/></g><g><text class="reserved" transform="translate(15, 24)">-</text></g></g><g transform="translate(1020 108)"><g><g><line x1="15" y1="0" x2="15" y2="27" class="part"/><line x1="0" y1="27" x2="15" y2="27" class="part"/></g><polygon points="0,0 6,0 6,6 0,6" transform="translate(-3 -3) translate(15 27)"/><g clip-path="polygon(-3 24, 30 24, 30 30, -3 30)"><line x1="0" y1="0" x2="15" y2="27" class="part"/></g></g><g><text class="reserved" transform="translate(15, 24)">+</text></g></g><g transform="translate(1080 108)"><g><g><line x1="30" y1="0" x2="15" y2="27" class="part"/><line x1="15" y1="27" x2="0" y2="54" class="part"/></g><g transform="translate(0 24)"><line x1="15" y1="27" x2="30" y2="27" class="part"/><line x1="0" y1="27" x2="15" y2="27" class="part"/></g></g><g><text class="reserved" transform="translate(15, 24)">/</text></g></g><g transform="translate(1110 108)"><g transform="translate(0 24)"><line x1="15" y1="27" x2="30" y2="27" class="part"/><line x1="0" y1="27" x2="15" y2="27" class="part"/></g><g><text class="reserved" transform="translate(15, 24)">_</text></g></g><g transform="translate(1140 108)"><g><g><line x1="30" y1="0" x2="15" y2="27" class="part"/><line x1="15" y1="27" x2="0" y2="54" class="part"/></g></g><g><text class="reserved" transform="translate(15, 24)">/</text></g></g><g transform="translate(1260 108)"><g><g><line x1="15" y1="27" x2="30" y2="54" class="part"/><line x1="0" y1="0" x2="15" y2="27" class="part"/></g></g><g><text class="reserved" transform="translate(15, 24)">\</text></g></g><g transform="translate(1290 108)"><g transform="translate(0 24)"><line x1="15" y1="27" x2="30" y2="27" class="part"/><line x1="0" y1="27" x2="15" y2="27" class="part"/></g><g><text class="reserved" transform="translate(15, 24)">_</text></g></g><g transform="translate(1320 108)"><g><g><line x1="15" y1="27" x2="30" y2="54" class="part"/><line x1="0" y1="0" x2="15" y2="27" class="part"/></g><g transform="translate(0 24)"><line x1="15" y1="27" x2="30" y2="27" class="part"/><line x1="0" y1="27" x2="15" y2="27" class="part"/></g></g><g><text class="reserved" transform="translate(15, 24)">\</text></g></g><g transform="translate(1380 108)"><g><path d="&#xA;        M 30 30&#xA;        A 18 18, 0, 0, 1, 12 12&#xA;        L 12 0&#xA;        L 18 0&#xA;        L 18 12&#xA;        A 12 12, 0, 0, 0, 30 24&#xA;        Z"/></g><g><text class="reserved" transform="translate(15, 24)">'</text></g></g><g transform="translate(1410 108)"><g><line x1="15" y1="27" x2="30" y2="27" class="part"/><line x1="0" y1="27" x2="15" y2="27" class="part"/></g><g><text class="reserved" transform="translate(15, 24)">-</text></g></g><g transform="translate(1440 108)"><g><line x1="15" y1="27" x2="30" y2="27" class="part"/><line x1="0" y1="27" x2="15" y2="27" class="part"/></g><g><text class="reserved" transform="translate(15, 24)">-</text></g></g><g transform="translate(1470 108)"><g><line x1="15" y1="27" x2="30" y2="27" class="part"/><line x1="0" y1="27" x2="15" y2="27" class="part"/></g><g><text class="reserved" transform="translate(15, 24)">-</text></g></g><g transform="translate(1500 108)"><g><path d="&#xA;        M 0 30&#xA;        A 18 18, 0, 0, 0, 18 12&#xA;        L 18 0&#xA;        L 12 0&#xA;        L 12 12&#xA;        A 12 12, 0, 0, 1, 0 24&#xA;        Z"/></g><g><text class="reserved" transform="translate(15, 24)">'</text></g></g><g transform="translate(1560 108)"><g><g><line x1="15" y1="0" x2="15" y2="27" class="part"/><line x1="15" y1="27" x2="30" y2="27" class="part"/></g><polygon points="0,0 6,0 6,6 0,6" transform="translate(-3 -3) translate(15 27)"/><g clip-path="polygon(-3 24, 30 24, 30 30, -3 30)"><line x1="30" y1="0" x2="15" y2="27" class="part"/></g></g><g><text class="reserved" transform="translate(15, 24)">+</text></g></g><g transform="translate(1590 108)"><g><g><line x1="15" y1="0" x2="15" y2="27" class="part"/><line x1="0" y1="27" x2="15" y2="27" class="part"/></g><polygon points="0,0 6,0 6,6 0,6" transform="translate(-3 -3) translate(15 27)"/><g clip-path="polygon(-3 24, 30 24, 30 30, -3 30)"><line x1="0" y1="0" x2="15" y2="27" class="part"/></g></g><g><text class="reserved" transform="translate(15, 24)">+</text></g></g><g transform="translate(1650 108)"><g><line x1="18" y1="51" x2="30" y2="51" class="part"/><g><line x1="15" y1="0" x2="15" y2="27" class="part"/><line x1="15" y1="27" x2="15" y2="54" class="part"/></g></g><g><text class="reserved" transform="translate(15, 24)">|</text></g></g><g transform="translate(1680 108)"><g transform="translate(0 24)"><line x1="15" y1="27" x2="30" y2="27" class="part"/><line x1="0" y1="27" x2="15" y2="27" class="part"/></g><g><text class="reserved" transform="translate(15, 24)">_</text></g></g><g transform="translate(1710 108)"><g transform="translate(0 24)"><line x1="15" y1="27" x2="30" y2="27" class="part"/><line x1="0" y1="27" x2="15" y2="27" class="part"/></g><g><text class="reserved" transform="translate(15, 24)">_</text></g></g><g transform="translate(1740 108)"><g><line x1="0" y1="51" x2="12" y2="51" class="part"/><g><line x1="15" y1="0" x2="15" y2="27" class="part"/><line x1="15" y1="27" x2="15" y2="54" class="part"/></g></g><g><text class="reserved" transform="translate(15, 24)">|</text></g></g><g transform="translate(1800 108)"><g><line x1="18" y1="51" x2="30" y2="51" class="part"/><line x1="12" y1="-3" x2="30" y2="-3" class="part"/><g><line x1="15" y1="0" x2="15" y2="27" class="part"/><line x1="15" y1="27" x2="15" y2="54" class="part"/></g></g><g><text class="reserved" transform="translate(15, 24)">|</text></g></g><g transform="translate(1830 108)"><g transform="translate(0 24)"><line x1="15" y1="27" x2="30" y2="27" class="part"/><line x1="0" y1="27" x2="15" y2="27" class="part"/></g><g><text class="reserved" transform="translate(15, 24)">_</text></g></g><g transform="translate(1860 108)"><g><line x1="0" y1="51" x2="12" y2="51" class="part"/><line x1="0" y1="-3" x2="18" y2="-3" class="part"/><g><line x1="15" y1="0" x2="15" y2="27" class="part"/><line x1="15" y1="27" x2="15" y2="54" class="part"/></g></g><g><text class="reserved" transform="translate(15, 24)">|</text></g></g><g transform="translate(1920 108)"><g><g><line x1="15" y1="27" x2="30" y2="27" class="part"/><line x1="30" y1="0" x2="15" y2="27" class="part"/></g><g clip-path="polygon(0 -3, 30 -3, 30 0, 0 0)"><line x1="15" y1="27" x2="0" y2="54" class="part"/></g><g clip-path="polygon(15 0, 30 0, 30 54, 15 54)"/><g clip-path="polygon(-3 24, 30 24, 30 30, -3 30)"><line x1="30" y1="0" x2="15" y2="27" class="part"/><line x1="15" y1="27" x2="0" y2="54" class="part"/></g></g><g><text class="reserved" transform="translate(15, 24)">+</text></g></g><g transform="translate(1950 108)"><g><line x1="15" y1="27" x2="30" y2="27" class="part"/><line x1="0" y1="27" x2="15" y2="27" class="part"/></g><g><text class="reserved" transform="translate(15, 24)">-</text></g></g><g transform="translate(1980 108)"><g><g><line x1="0" y1="27" x2="15" y2="27" class="part"/><line x1="30" y1="0" x2="15" y2="27" class="part"/></g><g clip-path="polygon(0 -3, 30 -3, 30 0, 0 0)"><line x1="15" y1="27" x2="0" y2="54" class="part"/></g><g clip-path="polygon(15 0, 30 0, 30 54, 15 54)"/><g clip-path="polygon(-3 24, 30 24, 30 30, -3 30)"><line x1="15" y1="27" x2="0" y2="54" class="part"/><line x1="0" y1="0" x2="15" y2="27" class="part"/></g></g><g><text class="reserved" transform="translate(15, 24)">+</text></g></g><g transform="translate(2190 108)"><g><g><line x1="15" y1="27" x2="30" y2="27" class="part"/><line x1="0" y1="0" x2="15" y2="27" class="part"/></g><g clip-path="polygon(0 -3, 30 -3, 30 0, 0 0)"><line x1="15" y1="27" x2="30" y2="54" class="part"/></g><g clip-path="polygon(-3 0, 0 0, 0 54, -3 54)"/><g clip-path="polygon(-3 24, 30 24, 30 30, -3 30)"><line x1="30" y1="0" x2="15" y2="27" class="part"/><line x1="15" y1="27" x2="30" y2="54" class="part"/></g></g><g><text class="reserved" transform="translate(15, 24)">+</text></g></g><g transform="translate(2220 108)"><g><line x1="15" y1="27" x2="30" y2="27" class="part"/><line x1="0" y1="27" x2="15" y2="27" class="part"/></g><g><text class="reserved" transform="translate(15, 24)">-</text></g></g><g transform="translate(2250 108)"><g><g><line x1="0" y1="27" x2="15" y2="27" class="part"/><line x1="0" y1="0" x2="15" y2="27" class="part"/></g><g clip-path="polygon(0 -3, 30 -3, 30 0, 0 0)"><line x1="15" y1="27" x2="30" y2="54" class="part"/></g><g clip-path="polygon(-3 0, 0 0, 0 54, -3 54)"/><g clip-path="polygon(-3 24, 30 24, 30 30, -3 30)"><line x1="15" y1="27" x2="30" y2="54" class="part"/><line x1="0" y1="0" x2="15" y2="27" class="part"/></g></g><g><text class="reserved" transform="translate(15, 24)">+</text></g></g><g transform="translate(750 162)"><g><g><line x1="15" y1="27" x2="30" y2="27" class="part"/><line x1="30" y1="0" x2="15" y2="27" class="part"/></g><g clip-path="polygon(0 -3, 30 -3, 30 0, 0 0)"><line x1="15" y1="27" x2="0" y2="54" class="part"/></g><g clip-path="polygon(15 0, 30 0, 30 54, 15 54)"/><g clip-path="polygon(-3 24, 30 24, 30 30, -3 30)"><line x1="30" y1="0" x2="15" y2="27" class="part"/><line x1="15" y1="27" x2="0" y2="54" class="part"/></g></g><g><text class="reserved" transform="translate(15, 24)">+</text></g></g><g transform="translate(780 162)"><g><line x1="15" y1="27" x2="30" y2="27" class="part"/><line x1="0" y1="27" x2="15" y2="27" class="part"/></g><g><text class="reserved" transform="translate(15, 24)">-</text></g></g><g transform="translate(810 162)"><g><line x1="15" y1="27" x2="30" y2="27" class="part"/><line x1="0" y1="27" x2="15" y2="27" class="part"/></g><g><text class="reserved" transform="translate(15, 24)">-</text></g></g><g transform="translate(840 162)"><g><line x1="15" y1="27" x2="30" y2="27" class="part"/><line x1="0" y1="27" x2="15" y2="27" class="part"/></g><g><text class="reserved" transform="translate(15, 24)">-</text></g></g><g transform="translate(870 162)"><g><line x1="15" y1="27" x2="30" y2="27" class="part"/><line x1="0" y1="27" x2="15" y2="27" class="part"/></g><g><text class="reserved" transform="translate(15, 24)">-</text></g></g><g transform="translate(900 162)"><g><g><line x1="0" y1="27" x2="15" y2="27" class="part"/><line x1="0" y1="0" x2="15" y2="27" class="part"/></g><g clip-path="polygon(0 -3, 30 -3, 30 0, 0 0)"><line x1="15" y1="27" x2="30" y2="54" class="part"/></g><g clip-path="polygon(-3 0, 0 0, 0 54, -3 54)"/><g clip-path="polygon(-3 24, 30 24, 30 30, -3 30)"><line x1="15" y1="27" x2="30" y2="54" class="part"/><line x1="0" y1="0" x2="15" y2="27" class="part"/></g></g><g><text class="reserved" transform="translate(15, 24)">+</text></g></g></g></svg>