<svg xmlns="http://www.w3.org/2000/svg" width="351" height="291.59999999999997" debug="false" viewBox="0 0 1170 972" class="debug"><style>
.diagram {
  display: block;
}

.diagram line, .diagram circle, .diagram rect {
  stroke: black;
}

.diagram line {
  stroke-width: 2;
}

.diagram circle {
  r: 3.5;
}

.diagram rect {
  width: 6px;
  height: 6px;
}

.diagram text, .glyph, .debug text {
  /** font-family: Consolas, Monaco, 'Andale Mono', 'Ubuntu Mono', monospace; **/
  font-family: Iosevka Fixed, monospace;
  font-size: 3em;
  text-anchor: middle;
  alignment-baseline: central;
  white-space: pre;
}

.reserved {
  fill: transparent;
  white-space: pre;
}

.debug[debug="true"] .reserved {
  fill: black;
  opacity: 0.5;
}

.debug[debug="true"] line.grid {
  stroke: black;
  stroke-width: 0.2;
  stroke-linecap: butt;
  fill: black;
  opacity: 1%;
}

polygon {
  stroke-width: 0;
}

.debug[debug="true"] polygon.inner {
  fill: black;
  stroke: black;
  opacity: 5%;
}

polygon {
  stroke: black;
  /** stroke-width: 0.2; **/
  stroke-linecap: butt;
  fill: black;
}

.debug[debug="true"] polygon,
.debug[debug="true"] line.grid
{
  opacity: 10%;
}

.debug[debug="true"] polygon,
.debug[debug="true"] path,
.debug[debug="true"] circle
{
  opacity: 50%;
}

.debug[debug="true"] polygon {
  fill: red;
  stroke: red;
}

/**
circle {
  fill: black;
}
**/

.debug[debug="true"] circle,
.debug[debug="true"] path
{
  opacity: 50%;
  fill: red;
}

.debug[debug="true"] circle {
  stroke: red;
}

.debug[debug="true"] .inner {
  stroke-width: 0.2;
}

line.part {
  stroke-width: 6;
  stroke-linecap: butt;
  stroke: black;
}

.debug[debug="true"] line.part {
  opacity: 50%;
  stroke: red;
}

.debug[debug="true"] line.center {
  stroke-width: 3;
  stroke-linecap: butt;
  opacity: 10%;
  stroke: black;
}

text::selection {
    fill: black;
    background-color: #EEE;
}
  </style><g><g transform="translate(300 54)"><g><g><line x1="15" y1="0" x2="15" y2="27" class="part"/><line x1="15" y1="27" x2="15" y2="54" class="part"/></g></g><g><text class="reserved" transform="translate(15, 24)">|</text></g></g><g transform="translate(390 54)"><g><polygon points="0,0 42,18 0,36" transform="translate(-3 42) rotate(-90)"/><g><line x1="15" y1="27" x2="15" y2="54" class="part"/></g></g><g><text class="reserved" transform="translate(15, 24)">^</text></g></g><g transform="translate(510 54)"><g><polygon points="0,0 42,18 0,36" transform="translate(-18 -15) rotate(-67.5, 42, 18)"/><g><line x1="15" y1="27" x2="0" y2="54" class="part"/></g></g><g><text class="reserved" transform="translate(15, 24)">^</text></g></g><g transform="translate(600 54)"><g><polygon points="0,0 42,18 0,36" transform="translate(-36 -15) rotate(-112.5, 42, 18)"/><g><line x1="15" y1="27" x2="30" y2="54" class="part"/></g></g><g><text class="reserved" transform="translate(15, 24)">^</text></g></g><g transform="translate(750 54)"><g><g><line x1="30" y1="0" x2="15" y2="27" class="part"/><line x1="15" y1="27" x2="0" y2="54" class="part"/></g></g><g><text class="reserved" transform="translate(15, 24)">/</text></g></g><g transform="translate(840 54)"><g><g><line x1="15" y1="27" x2="30" y2="54" class="part"/><line x1="0" y1="0" x2="15" y2="27" class="part"/></g></g><g><text class="reserved" transform="translate(15, 24)">\</text></g></g><g transform="translate(60 108)"><g><line x1="15" y1="27" x2="30" y2="27" class="part"/><line x1="0" y1="27" x2="15" y2="27" class="part"/></g><g><text class="reserved" transform="translate(15, 24)">-</text></g></g><g transform="translate(90 108)"><g><polygon points="0,0 42,18 0,36" transform="translate(0 9)"/></g><g><text class="reserved" transform="translate(15, 24)">&gt;</text></g></g><g transform="translate(180 108)"><g><polygon points="0,0 42,18 0,36" transform="translate(30 9) translate(0 36) rotate(180)"/></g><g><text class="reserved" transform="translate(15, 24)">&lt;</text></g></g><g transform="translate(210 108)"><g><line x1="15" y1="27" x2="30" y2="27" class="part"/><line x1="0" y1="27" x2="15" y2="27" class="part"/></g><g><text class="reserved" transform="translate(15, 24)">-</text></g></g><g transform="translate(300 108)"><g><polygon points="0,0 42,18 0,36" transform="translate(33 12) rotate(90)"/><g><line x1="15" y1="0" x2="15" y2="27" class="part"/><line x1="15" y1="27" x2="15" y2="54" class="part"/></g></g><g><text class="reserved" transform="translate(15, 24)">v</text></g></g><g transform="translate(390 108)"><g><g><line x1="15" y1="0" x2="15" y2="27" class="part"/><line x1="15" y1="27" x2="15" y2="54" class="part"/></g></g><g><text class="reserved" transform="translate(15, 24)">|</text></g></g><g transform="translate(480 108)"><g><g><line x1="30" y1="0" x2="15" y2="27" class="part"/><line x1="15" y1="27" x2="0" y2="54" class="part"/></g></g><g><text class="reserved" transform="translate(15, 24)">/</text></g></g><g transform="translate(630 108)"><g><g><line x1="15" y1="27" x2="30" y2="54" class="part"/><line x1="0" y1="0" x2="15" y2="27" class="part"/></g></g><g><text class="reserved" transform="translate(15, 24)">\</text></g></g><g transform="translate(720 108)"><g><polygon points="0,0 42,18 0,36" transform="translate(-36 33) rotate(112.5, 42, 18)"/><g><line x1="30" y1="0" x2="15" y2="27" class="part"/></g></g><g><text class="reserved" transform="translate(15, 24)">v</text></g></g><g transform="translate(870 108)"><g><polygon points="0,0 42,18 0,36" transform="translate(-18 33) rotate(67.5, 42, 18)"/><g><line x1="0" y1="0" x2="15" y2="27" class="part"/></g></g><g><text class="reserved" transform="translate(15, 24)">v</text></g></g><g transform="translate(60 216)"><g><line x1="15" y1="27" x2="30" y2="27" class="part"/><line x1="0" y1="27" x2="15" y2="27" class="part"/></g><g><text class="reserved" transform="translate(15, 24)">-</text></g></g><g transform="translate(90 216)"><g><polygon points="0,0 42,18 0,36" transform="translate(0 9)"/></g><g><text class="reserved" transform="translate(15, 24)">&gt;</text></g></g><g transform="translate(120 216)"><g><g><line x1="15" y1="0" x2="15" y2="27" class="part"/><line x1="15" y1="27" x2="15" y2="54" class="part"/></g></g><g><text class="reserved" transform="translate(15, 24)">|</text></g></g><g transform="translate(210 216)"><g><g><line x1="15" y1="0" x2="15" y2="27" class="part"/><line x1="15" y1="27" x2="15" y2="54" class="part"/></g></g><g><text class="reserved" transform="translate(15, 24)">|</text></g></g><g transform="translate(240 216)"><g><polygon points="0,0 42,18 0,36" transform="translate(30 9) translate(0 36) rotate(180)"/></g><g><text class="reserved" transform="translate(15, 24)">&lt;</text></g></g><g transform="translate(270 216)"><g><line x1="15" y1="27" x2="30" y2="27" class="part"/><line x1="0" y1="27" x2="15" y2="27" class="part"/></g><g><text class="reserved" transform="translate(15, 24)">-</text></g></g><g transform="translate(330 216)"><g><line x1="15" y1="27" x2="30" y2="27" class="part"/><line x1="0" y1="27" x2="15" y2="27" class="part"/></g><g><text class="reserved" transform="translate(15, 24)">-</text></g></g><g transform="translate(360 216)"><g><polygon points="0,0 42,18 0,36" transform="translate(-18 9)"/></g><g><text class="reserved" transform="translate(15, 24)">&gt;</text></g></g><g transform="translate(390 216)"><g><circle cx="0" cy="0" r="18" stroke-width="6" fill="none" stroke="black" transform="translate(15, 27)"/><g/><circle cx="0" cy="0" r="15" fill="white" opacity="100%" transform="translate(15, 27)"/></g><g><text class="reserved" transform="translate(15, 24)">o</text></g></g><g transform="translate(480 216)"><g><circle cx="0" cy="0" r="18" stroke-width="6" fill="none" stroke="black" transform="translate(15, 27)"/><g/><circle cx="0" cy="0" r="15" fill="white" opacity="100%" transform="translate(15, 27)"/></g><g><text class="reserved" transform="translate(15, 24)">o</text></g></g><g transform="translate(510 216)"><g><polygon points="0,0 42,18 0,36" transform="translate(48 9) translate(0 36) rotate(180)"/></g><g><text class="reserved" transform="translate(15, 24)">&lt;</text></g></g><g transform="translate(540 216)"><g><line x1="15" y1="27" x2="30" y2="27" class="part"/><line x1="0" y1="27" x2="15" y2="27" class="part"/></g><g><text class="reserved" transform="translate(15, 24)">-</text></g></g><g transform="translate(630 216)"><g><line x1="15" y1="27" x2="30" y2="27" class="part"/><line x1="0" y1="27" x2="15" y2="27" class="part"/></g><g><text class="reserved" transform="translate(15, 24)">-</text></g></g><g transform="translate(660 216)"><g><polygon points="0,0 42,18 0,36" transform="translate(-18 9)"/></g><g><text class="reserved" transform="translate(15, 24)">&gt;</text></g></g><g transform="translate(690 216)"><g><circle cx="0" cy="0" r="21" stroke="none" transform="translate(15, 27)"/><g/></g><g><text class="reserved" transform="translate(15, 24)">*</text></g></g><g transform="translate(750 216)"><g><circle cx="0" cy="0" r="21" stroke="none" transform="translate(15, 27)"/><g/></g><g><text class="reserved" transform="translate(15, 24)">*</text></g></g><g transform="translate(780 216)"><g><polygon points="0,0 42,18 0,36" transform="translate(48 9) translate(0 36) rotate(180)"/></g><g><text class="reserved" transform="translate(15, 24)">&lt;</text></g></g><g transform="translate(810 216)"><g><line x1="15" y1="27" x2="30" y2="27" class="part"/><line x1="0" y1="27" x2="15" y2="27" class="part"/></g><g><text class="reserved" transform="translate(15, 24)">-</text></g></g><g transform="translate(900 216)"><g><line x1="15" y1="27" x2="30" y2="27" class="part"/><line x1="0" y1="27" x2="15" y2="27" class="part"/></g><g><text class="reserved" transform="translate(15, 24)">-</text></g></g><g transform="translate(930 216)"><g><polygon points="0,0 42,18 0,36" transform="translate(-18 9)"/></g><g><text class="reserved" transform="translate(15, 24)">&gt;</text></g></g><g transform="translate(960 216)"><g><polygon points="0,0 42,0 42,42 0,42" transform="translate(-6, 6)"/><g/></g><g><text class="reserved" transform="translate(15, 24)">#</text></g></g><g transform="translate(1020 216)"><g><polygon points="0,0 42,0 42,42 0,42" transform="translate(-6, 6)"/><g/></g><g><text class="reserved" transform="translate(15, 24)">#</text></g></g><g transform="translate(1050 216)"><g><polygon points="0,0 42,18 0,36" transform="translate(48 9) translate(0 36) rotate(180)"/></g><g><text class="reserved" transform="translate(15, 24)">&lt;</text></g></g><g transform="translate(1080 216)"><g><line x1="15" y1="27" x2="30" y2="27" class="part"/><line x1="0" y1="27" x2="15" y2="27" class="part"/></g><g><text class="reserved" transform="translate(15, 24)">-</text></g></g><g transform="translate(60 324)"><g><line x1="15" y1="27" x2="30" y2="27" class="part"/><line x1="0" y1="27" x2="15" y2="27" class="part"/></g><g><text class="reserved" transform="translate(15, 24)">-</text></g></g><g transform="translate(180 324)"><g transform="translate(0 24)"><line x1="15" y1="27" x2="30" y2="27" class="part"/><line x1="0" y1="27" x2="15" y2="27" class="part"/></g><g><text class="reserved" transform="translate(15, 24)">_</text></g></g><g transform="translate(300 324)"><g><circle cx="0" cy="0" r="21" stroke="none" transform="translate(15, 27)"/><g/></g><g><text class="reserved" transform="translate(15, 24)">*</text></g></g><g transform="translate(420 324)"><g><circle cx="0" cy="0" r="18" stroke-width="6" fill="none" stroke="black" transform="translate(15, 27)"/><g/><circle cx="0" cy="0" r="15" fill="white" opacity="100%" transform="translate(15, 27)"/></g><g><text class="reserved" transform="translate(15, 24)">o</text></g></g><g transform="translate(540 324)"><g><polygon points="0,0 42,0 42,42 0,42" transform="translate(-6, 6)"/><g/></g><g><text class="reserved" transform="translate(15, 24)">#</text></g></g><g transform="translate(60 378)"><g><polygon points="0,0 42,18 0,36" transform="translate(-3 27) rotate(-90)"/><g><line x1="15" y1="27" x2="15" y2="54" class="part"/></g></g><g><text class="reserved" transform="translate(15, 24)">^</text></g></g><g transform="translate(180 378)"><g><polygon points="0,0 42,18 0,36" transform="translate(-3 42) rotate(-90)"/><g><line x1="15" y1="27" x2="15" y2="54" class="part"/></g></g><g><text class="reserved" transform="translate(15, 24)">^</text></g></g><g transform="translate(300 378)"><g><polygon points="0,0 42,18 0,36" transform="translate(-3 42) rotate(-90)"/><g><line x1="15" y1="27" x2="15" y2="54" class="part"/></g></g><g><text class="reserved" transform="translate(15, 24)">^</text></g></g><g transform="translate(420 378)"><g><polygon points="0,0 42,18 0,36" transform="translate(-3 42) rotate(-90)"/><g><line x1="15" y1="27" x2="15" y2="54" class="part"/></g></g><g><text class="reserved" transform="translate(15, 24)">^</text></g></g><g transform="translate(540 378)"><g><polygon points="0,0 42,18 0,36" transform="translate(-3 42) rotate(-90)"/><g><line x1="15" y1="27" x2="15" y2="54" class="part"/></g></g><g><text class="reserved" transform="translate(15, 24)">^</text></g></g><g transform="translate(60 432)"><g><g><line x1="15" y1="0" x2="15" y2="27" class="part"/><line x1="15" y1="27" x2="15" y2="54" class="part"/></g></g><g><text class="reserved" transform="translate(15, 24)">|</text></g></g><g transform="translate(180 432)"><g><g><line x1="15" y1="0" x2="15" y2="27" class="part"/><line x1="15" y1="27" x2="15" y2="54" class="part"/></g></g><g><text class="reserved" transform="translate(15, 24)">|</text></g></g><g transform="translate(300 432)"><g><g><line x1="15" y1="0" x2="15" y2="27" class="part"/><line x1="15" y1="27" x2="15" y2="54" class="part"/></g></g><g><text class="reserved" transform="translate(15, 24)">|</text></g></g><g transform="translate(420 432)"><g><g><line x1="15" y1="0" x2="15" y2="27" class="part"/><line x1="15" y1="27" x2="15" y2="54" class="part"/></g></g><g><text class="reserved" transform="translate(15, 24)">|</text></g></g><g transform="translate(540 432)"><g><g><line x1="15" y1="0" x2="15" y2="27" class="part"/><line x1="15" y1="27" x2="15" y2="54" class="part"/></g></g><g><text class="reserved" transform="translate(15, 24)">|</text></g></g><g transform="translate(60 540)"><g><g><line x1="15" y1="0" x2="15" y2="27" class="part"/><line x1="15" y1="27" x2="15" y2="54" class="part"/></g></g><g><text class="reserved" transform="translate(15, 24)">|</text></g></g><g transform="translate(180 540)"><g><g><line x1="15" y1="0" x2="15" y2="27" class="part"/><line x1="15" y1="27" x2="15" y2="54" class="part"/></g></g><g><text class="reserved" transform="translate(15, 24)">|</text></g></g><g transform="translate(300 540)"><g><g><line x1="15" y1="0" x2="15" y2="27" class="part"/><line x1="15" y1="27" x2="15" y2="54" class="part"/></g></g><g><text class="reserved" transform="translate(15, 24)">|</text></g></g><g transform="translate(420 540)"><g><g><line x1="15" y1="0" x2="15" y2="27" class="part"/><line x1="15" y1="27" x2="15" y2="54" class="part"/></g></g><g><text class="reserved" transform="translate(15, 24)">|</text></g></g><g transform="translate(540 540)"><g><g><line x1="15" y1="0" x2="15" y2="27" class="part"/><line x1="15" y1="27" x2="15" y2="54" class="part"/></g></g><g><text class="reserved" transform="translate(15, 24)">|</text></g></g><g transform="translate(60 594)"><g><polygon points="0,0 42,18 0,36" transform="translate(33 36) rotate(90)"/><g><line x1="15" y1="0" x2="15" y2="27" class="part"/><line x1="15" y1="27" x2="15" y2="54" class="part"/></g></g><g><text class="reserved" transform="translate(15, 24)">v</text></g></g><g transform="translate(180 594)"><g><polygon points="0,0 42,18 0,36" transform="translate(33 54) rotate(90)"/><g><line x1="15" y1="0" x2="15" y2="27" class="part"/><line x1="15" y1="27" x2="15" y2="54" class="part"/></g></g><g><text class="reserved" transform="translate(15, 24)">v</text></g></g><g transform="translate(300 594)"><g><polygon points="0,0 42,18 0,36" transform="translate(33 18) rotate(90)"/><g><line x1="15" y1="0" x2="15" y2="27" class="part"/><line x1="15" y1="27" x2="15" y2="54" class="part"/></g></g><g><text class="reserved" transform="translate(15, 24)">v</text></g></g><g transform="translate(420 594)"><g><polygon points="0,0 42,18 0,36" transform="translate(33 18) rotate(90)"/><g><line x1="15" y1="0" x2="15" y2="27" class="part"/><line x1="15" y1="27" x2="15" y2="54" class="part"/></g></g><g><text class="reserved" transform="translate(15, 24)">v</text></g></g><g transform="translate(540 594)"><g><polygon points="0,0 42,18 0,36" transform="translate(33 18) rotate(90)"/><g><line x1="15" y1="0" x2="15" y2="27" class="part"/><line x1="15" y1="27" x2="15" y2="54" class="part"/></g></g><g><text class="reserved" transform="translate(15, 24)">v</text></g></g><g transform="translate(60 648)"><g><line x1="15" y1="27" x2="30" y2="27" class="part"/><line x1="0" y1="27" x2="15" y2="27" class="part"/></g><g><text class="reserved" transform="translate(15, 24)">-</text></g></g><g transform="translate(180 648)"><g transform="translate(0 24)"><line x1="15" y1="27" x2="30" y2="27" class="part"/><line x1="0" y1="27" x2="15" y2="27" class="part"/></g><g><text class="reserved" transform="translate(15, 24)">_</text></g></g><g transform="translate(300 648)"><g><circle cx="0" cy="0" r="21" stroke="none" transform="translate(15, 27)"/><g/></g><g><text class="reserved" transform="translate(15, 24)">*</text></g></g><g transform="translate(420 648)"><g><circle cx="0" cy="0" r="18" stroke-width="6" fill="none" stroke="black" transform="translate(15, 27)"/><g/><circle cx="0" cy="0" r="15" fill="white" opacity="100%" transform="translate(15, 27)"/></g><g><text class="reserved" transform="translate(15, 24)">o</text></g></g><g transform="translate(540 648)"><g><polygon points="0,0 42,0 42,42 0,42" transform="translate(-6, 6)"/><g/></g><g><text class="reserved" transform="translate(15, 24)">#</text></g></g><g transform="translate(1020 756)"><g><line x1="15" y1="27" x2="30" y2="27" class="part"/><line x1="0" y1="27" x2="15" y2="27" class="part"/></g><g><text class="reserved" transform="translate(15, 24)">-</text></g></g><g transform="translate(1050 756)"><g><line x1="15" y1="27" x2="30" y2="27" class="part"/><line x1="0" y1="27" x2="15" y2="27" class="part"/></g><g><text class="reserved" transform="translate(15, 24)">-</text></g></g><g transform="translate(1080 756)"><g><line x1="15" y1="27" x2="30" y2="27" class="part"/><line x1="0" y1="27" x2="15" y2="27" class="part"/></g><g><text class="reserved" transform="translate(15, 24)">-</text></g></g><g transform="translate(1110 756)"><g><line x1="15" y1="27" x2="30" y2="27" class="part"/><line x1="0" y1="27" x2="15" y2="27" class="part"/></g><g><text class="reserved" transform="translate(15, 24)">-</text></g></g><g transform="translate(60 810)"><g><g><line x1="15" y1="27" x2="30" y2="54" class="part"/><line x1="0" y1="0" x2="15" y2="27" class="part"/></g></g><g><text class="reserved" transform="translate(15, 24)">\</text></g></g><g transform="translate(120 810)"><g><g><line x1="15" y1="0" x2="15" y2="27" class="part"/><line x1="15" y1="27" x2="15" y2="54" class="part"/></g></g><g><text class="reserved" transform="translate(15, 24)">|</text></g></g><g transform="translate(210 810)"><g><g><line x1="15" y1="0" x2="15" y2="27" class="part"/><line x1="15" y1="27" x2="15" y2="54" class="part"/></g></g><g><text class="reserved" transform="translate(15, 24)">|</text></g></g><g transform="translate(270 810)"><g><g><line x1="30" y1="0" x2="15" y2="27" class="part"/><line x1="15" y1="27" x2="0" y2="54" class="part"/></g></g><g><text class="reserved" transform="translate(15, 24)">/</text></g></g><g transform="translate(450 810)"><g><polygon points="0,0 42,18 0,36" transform="translate(-18 -15) rotate(-67.5, 42, 18)"/><g><line x1="15" y1="27" x2="0" y2="54" class="part"/></g></g><g><text class="reserved" transform="translate(15, 24)">^</text></g></g><g transform="translate(480 810)"><g><g><line x1="15" y1="0" x2="15" y2="27" class="part"/><line x1="15" y1="27" x2="15" y2="54" class="part"/></g></g><g><text class="reserved" transform="translate(15, 24)">|</text></g></g><g transform="translate(570 810)"><g><g><line x1="15" y1="0" x2="15" y2="27" class="part"/><line x1="15" y1="27" x2="15" y2="54" class="part"/></g></g><g><text class="reserved" transform="translate(15, 24)">|</text></g></g><g transform="translate(600 810)"><g><polygon points="0,0 42,18 0,36" transform="translate(-36 -15) rotate(-112.5, 42, 18)"/><g><line x1="15" y1="27" x2="30" y2="54" class="part"/></g></g><g><text class="reserved" transform="translate(15, 24)">^</text></g></g><g transform="translate(720 810)"><g><g><line x1="15" y1="27" x2="30" y2="54" class="part"/><line x1="0" y1="0" x2="15" y2="27" class="part"/></g></g><g><text class="reserved" transform="translate(15, 24)">\</text></g></g><g transform="translate(870 810)"><g><g><line x1="30" y1="0" x2="15" y2="27" class="part"/><line x1="15" y1="27" x2="0" y2="54" class="part"/></g></g><g><text class="reserved" transform="translate(15, 24)">/</text></g></g><g transform="translate(1020 810)"><g><polygon points="0,0 42,18 0,36" transform="translate(-18 -15) rotate(-67.5, 42, 18)"/><g><line x1="15" y1="27" x2="0" y2="54" class="part"/></g></g><g><text class="reserved" transform="translate(15, 24)">^</text></g></g><g transform="translate(1110 810)"><g><polygon points="0,0 42,18 0,36" transform="translate(-36 -15) rotate(-112.5, 42, 18)"/><g><line x1="15" y1="27" x2="30" y2="54" class="part"/></g></g><g><text class="reserved" transform="translate(15, 24)">^</text></g></g><g transform="translate(90 864)"><g><polygon points="0,0 42,18 0,36" transform="translate(-18 33) rotate(67.5, 42, 18)"/><g><line x1="0" y1="0" x2="15" y2="27" class="part"/></g></g><g><text class="reserved" transform="translate(15, 24)">v</text></g></g><g transform="translate(120 864)"><g><g><line x1="15" y1="0" x2="15" y2="27" class="part"/><line x1="15" y1="27" x2="15" y2="54" class="part"/></g></g><g><text class="reserved" transform="translate(15, 24)">|</text></g></g><g transform="translate(210 864)"><g><g><line x1="15" y1="0" x2="15" y2="27" class="part"/><line x1="15" y1="27" x2="15" y2="54" class="part"/></g></g><g><text class="reserved" transform="translate(15, 24)">|</text></g></g><g transform="translate(240 864)"><g><polygon points="0,0 42,18 0,36" transform="translate(-36 33) rotate(112.5, 42, 18)"/><g><line x1="30" y1="0" x2="15" y2="27" class="part"/></g></g><g><text class="reserved" transform="translate(15, 24)">v</text></g></g><g transform="translate(420 864)"><g><g><line x1="30" y1="0" x2="15" y2="27" class="part"/><line x1="15" y1="27" x2="0" y2="54" class="part"/></g></g><g><text class="reserved" transform="translate(15, 24)">/</text></g></g><g transform="translate(480 864)"><g><g><line x1="15" y1="0" x2="15" y2="27" class="part"/><line x1="15" y1="27" x2="15" y2="54" class="part"/></g></g><g><text class="reserved" transform="translate(15, 24)">|</text></g></g><g transform="translate(570 864)"><g><g><line x1="15" y1="0" x2="15" y2="27" class="part"/><line x1="15" y1="27" x2="15" y2="54" class="part"/></g></g><g><text class="reserved" transform="translate(15, 24)">|</text></g></g><g transform="translate(630 864)"><g><g><line x1="15" y1="27" x2="30" y2="54" class="part"/><line x1="0" y1="0" x2="15" y2="27" class="part"/></g></g><g><text class="reserved" transform="translate(15, 24)">\</text></g></g><g transform="translate(750 864)"><g><polygon points="0,0 42,18 0,36" transform="translate(-18 33) rotate(67.5, 42, 18)"/><g><line x1="0" y1="0" x2="15" y2="27" class="part"/></g></g><g><text class="reserved" transform="translate(15, 24)">v</text></g></g><g transform="translate(840 864)"><g><polygon points="0,0 42,18 0,36" transform="translate(-36 33) rotate(112.5, 42, 18)"/><g><line x1="30" y1="0" x2="15" y2="27" class="part"/></g></g><g><text class="reserved" transform="translate(15, 24)">v</text></g></g><g transform="translate(990 864)"><g><g><line x1="30" y1="0" x2="15" y2="27" class="part"/><line x1="15" y1="27" x2="0" y2="54" class="part"/></g></g><g><text class="reserved" transform="translate(15, 24)">/</text></g></g><g transform="translate(1140 864)"><g><g><line x1="15" y1="27" x2="30" y2="54" class="part"/><line x1="0" y1="0" x2="15" y2="27" class="part"/></g></g><g><text class="reserved" transform="translate(15, 24)">\</text></g></g><g transform="translate(750 918)"><g><line x1="15" y1="27" x2="30" y2="27" class="part"/><line x1="0" y1="27" x2="15" y2="27" class="part"/></g><g><text class="reserved" transform="translate(15, 24)">-</text></g></g><g transform="translate(780 918)"><g><line x1="15" y1="27" x2="30" y2="27" class="part"/><line x1="0" y1="27" x2="15" y2="27" class="part"/></g><g><text class="reserved" transform="translate(15, 24)">-</text></g></g><g transform="translate(810 918)"><g><line x1="15" y1="27" x2="30" y2="27" class="part"/><line x1="0" y1="27" x2="15" y2="27" class="part"/></g><g><text class="reserved" transform="translate(15, 24)">-</text></g></g><g transform="translate(840 918)"><g><line x1="15" y1="27" x2="30" y2="27" class="part"/><line x1="0" y1="27" x2="15" y2="27" class="part"/></g><g><text class="reserved" transform="translate(15, 24)">-</text></g></g></g></svg>