<svg xmlns="http://www.w3.org/2000/svg" width="351" height="97.2" debug="false" viewBox="0 0 1170 324" class="debug"><style>
.diagram {
  display: block;
}

.diagram line, .diagram circle, .diagram rect {
  stroke: black;
}

.diagram line {
  stroke-width: 2;
}

.diagram circle {
  r: 3.5;
}

.diagram rect {
  width: 6px;
  height: 6px;
}

.diagram text, .glyph, .debug text {
  /** font-family: Consolas, Monaco, 'Andale Mono', 'Ubuntu Mono', monospace; **/
  font-family: Iosevka Fixed, monospace;
  font-size: 3em;
  text-anchor: middle;
  alignment-baseline: central;
  white-space: pre;
}

.reserved {
  fill: transparent;
  white-space: pre;
}

.debug[debug="true"] .reserved {
  fill: black;
  opacity: 0.5;
}

.debug[debug="true"] line.grid {
  stroke: black;
  stroke-width: 0.2;
  stroke-linecap: butt;
  fill: black;
  opacity: 1%;
}

polygon {
  stroke-width: 0;
}

.debug[debug="true"] polygon.inner {
  fill: black;
  stroke: black;
  opacity: 5%;
}

polygon {
  stroke: black;
  /** stroke-width: 0.2; **/
  stroke-linecap: butt;
  fill: black;
}

.debug[debug="true"] polygon,
.debug[debug="true"] line.grid
{
  opacity: 10%;
}

.debug[debug="true"] polygon,
.debug[debug="true"] path,
.debug[debug="true"] circle
{
  opacity: 50%;
}

.debug[debug="true"] polygon {
  fill: red;
  stroke: red;
}

/**
circle {
  fill: black;
}
**/

.debug[debug="true"] circle,
.debug[debug="true"] path
{
  opacity: 50%;
  fill: red;
}

.debug[debug="true"] circle {
  stroke: red;
}

.debug[debug="true"] .inner {
  stroke-width: 0.2;
}

line.part {
  stroke-width: 6;
  stroke-linecap: butt;
  stroke: black;
}

.debug[debug="true"] line.part {
  opacity: 50%;
  stroke: red;
}

.debug[debug="true"] line.center {
  stroke-width: 3;
  stroke-linecap: butt;
  opacity: 10%;
  stroke: black;
}

text::selection {
    fill: black;
    background-color: #EEE;
}
  </style><g><g transform="translate(210 0)"><g><text transform="translate(15, 24)">\</text></g></g><g transform="translate(300 0)"><g><text transform="translate(15, 24)">/</text></g></g><g transform="translate(390 0)"><g><text transform="translate(15, 24)">|</text></g></g><g transform="translate(480 0)"><g><text transform="translate(15, 24)">|</text></g></g><g transform="translate(210 54)"><g><text transform="translate(15, 24)">(</text></g></g><g transform="translate(300 54)"><g><text transform="translate(15, 24)">)</text></g></g><g transform="translate(360 54)"><g><text transform="translate(15, 24)">(</text></g></g><g transform="translate(510 54)"><g><text transform="translate(15, 24)">)</text></g></g><g transform="translate(210 108)"><g><text transform="translate(15, 24)">/</text></g></g><g transform="translate(300 108)"><g><text transform="translate(15, 24)">\</text></g></g><g transform="translate(390 108)"><g><text transform="translate(15, 24)">|</text></g></g><g transform="translate(480 108)"><g><text transform="translate(15, 24)">|</text></g></g><g transform="translate(120 162)"><g><text transform="translate(15, 24)">_</text></g></g><g transform="translate(150 162)"><g><text transform="translate(15, 24)">_</text></g></g><g transform="translate(270 162)"><g><text transform="translate(15, 24)">.</text></g></g><g transform="translate(300 162)"><g><text transform="translate(15, 24)">-</text></g></g><g transform="translate(330 162)"><g><text transform="translate(15, 24)">.</text></g></g><g transform="translate(480 162)"><g><text transform="translate(15, 24)">.</text></g></g><g transform="translate(510 162)"><g><text transform="translate(15, 24)">-</text></g></g><g transform="translate(540 162)"><g><text transform="translate(15, 24)">.</text></g></g><g transform="translate(660 162)"><g><text transform="translate(15, 24)">|</text></g></g><g transform="translate(780 162)"><g><text transform="translate(15, 24)">|</text></g></g><g transform="translate(900 162)"><g><text transform="translate(15, 24)">/</text></g></g><g transform="translate(990 162)"><g><text transform="translate(15, 24)">\</text></g></g><g transform="translate(90 216)"><g><text transform="translate(15, 24)">(</text></g></g><g transform="translate(120 216)"><g><text transform="translate(15, 24)">_</text></g></g><g transform="translate(150 216)"><g><text transform="translate(15, 24)">_</text></g></g><g transform="translate(180 216)"><g><text transform="translate(15, 24)">)</text></g></g><g transform="translate(240 216)"><g><text transform="translate(15, 24)">(</text></g></g><g transform="translate(300 216)"><g><text transform="translate(15, 24)">1</text></g></g><g transform="translate(360 216)"><g><text transform="translate(15, 24)">)</text></g></g><g transform="translate(450 216)"><g><text transform="translate(15, 24)">|</text></g></g><g transform="translate(570 216)"><g><text transform="translate(15, 24)">|</text></g></g><g transform="translate(690 216)"><g><text transform="translate(15, 24)">'</text></g></g><g transform="translate(720 216)"><g><text transform="translate(15, 24)">-</text></g></g><g transform="translate(750 216)"><g><text transform="translate(15, 24)">'</text></g></g><g transform="translate(870 216)"><g><text transform="translate(15, 24)">+</text></g></g><g transform="translate(900 216)"><g><text transform="translate(15, 24)">)</text></g></g><g transform="translate(990 216)"><g><text transform="translate(15, 24)">(</text></g></g><g transform="translate(1020 216)"><g><text transform="translate(15, 24)">+</text></g></g><g transform="translate(270 270)"><g><text transform="translate(15, 24)">'</text></g></g><g transform="translate(300 270)"><g><text transform="translate(15, 24)">-</text></g></g><g transform="translate(330 270)"><g><text transform="translate(15, 24)">'</text></g></g><g transform="translate(900 270)"><g><text transform="translate(15, 24)">\</text></g></g><g transform="translate(990 270)"><g><text transform="translate(15, 24)">/</text></g></g></g></svg>